:FULLY-SPECIFIED
:FORCE-ALL-JOINTS-BE-3DOF
:DEGREES
3058
root -1.6242 15.9712 -34.1733 1087.48 3.52643 1.361
lfemur -34.9404 5.09153 -2.5953
ltibia 55.0605 0 0
lfoot -10.3347 -4.54872 0
ltoes -43.6473 0 0
rfemur -37.3891 -5.41891 25.0791
rtibia 61.5684 0 0
rfoot -21.3021 -28.0509 0
rtoes -0.0181598 0 0
lowerback 13.339 0.243376 -1.45252
upperback -1.13016 0.228893 1.64419
thorax -8.73587 0.225604 2.53576
lowerneck 4.03312 -9.06593 -12.0997
upperneck -3.2797 -12.468 9.81737
head -0.238474 -6.29636 4.85969
lclavicle 1.50236e-015 -1.48596e-014 0
lhumerus 15.4115 -44.2526 86.7271
lradius 70.5179 0 0
lwrist -3.39288 0 0
lhand -28.2457 395.832 0
lfingers 7.12502 0 0
lthumb -1.6232 -654.195 0
rclavicle 1.50236e-015 -1.48596e-014 0
rhumerus 21.1937 47.5941 -48.5357
rradius 105.178 0 0
rwrist -44.2269 0 0
rhand -7.59157 -397.506 0
rfingers 7.12502 0 0
rthumb 18.3018 293.335 0
3059
root -1.58558 15.9749 -34.1547 1087.38 3.97985 1.32755
lfemur -34.8085 4.88175 -2.8191
ltibia 54.8865 0 0
lfoot -10.7488 -4.39017 0
ltoes -43.9344 0 0
rfemur -37.1381 -5.19352 24.8836
rtibia 61.586 0 0
rfoot -21.0135 -27.9665 0
rtoes -0.647426 0 0
lowerback 13.2886 0.231444 -1.34665
upperback -1.12838 0.229011 1.62455
thorax -8.70406 0.219613 2.45399
lowerneck 3.91348 -8.92857 -11.9852
upperneck -3.15766 -12.2706 9.76477
head -0.215907 -6.19626 4.82227
lclavicle 8.44357e-016 -1.58416e-014 0
lhumerus 14.2846 -44.5718 87.1979
lradius 70.6992 0 0
lwrist -2.71309 0 0
lhand -28.2586 396.187 0
lfingers 7.12502 0 0
lthumb -1.63566 -653.84 0
rclavicle 8.44357e-016 -1.58416e-014 0
rhumerus 19.4516 48.2092 -49.652
rradius 105.704 0 0
rwrist -43.8691 0 0
rhand -7.62753 -398.336 0
rfingers 7.12502 0 0
rthumb 18.2672 292.502 0
3060
root -1.54695 15.9786 -34.1362 1087.28 4.41315 1.2918
lfemur -34.6747 4.67159 -3.04387
ltibia 54.7175 0 0
lfoot -11.1553 -4.21657 0
ltoes -44.1978 0 0
rfemur -36.884 -4.97215 24.6901
rtibia 61.5952 0 0
rfoot -20.7291 -27.8787 0
rtoes -1.2871 0 0
lowerback 13.2357 0.221107 -1.24312
upperback -1.12821 0.230906 1.60538
thorax -8.6727 0.214626 2.37373
lowerneck 3.79224 -8.79168 -11.8698
upperneck -3.0351 -12.0738 9.7094
head -0.192739 -6.09644 4.78447
lclavicle 1.2978e-016 -1.67715e-014 0
lhumerus 13.155 -44.87 87.67
lradius 70.8739 0 0
lwrist -2.05366 0 0
lhand -28.2732 396.52 0
lfingers 7.12502 0 0
lthumb -1.64976 -653.506 0
rclavicle 1.2978e-016 -1.67715e-014 0
rhumerus 17.7096 48.7943 -50.7855
rradius 106.212 0 0
rwrist -43.5129 0 0
rhand -7.66202 -399.107 0
rfingers 7.12502 0 0
rthumb 18.234 291.728 0
3061
root -1.50833 15.9824 -34.1177 1087.18 4.82626 1.25443
lfemur -34.5362 4.46335 -3.26628
ltibia 54.5475 0 0
lfoot -11.5519 -4.03231 0
ltoes -44.4388 0 0
rfemur -36.6279 -4.75792 24.4988
rtibia 61.5938 0 0
rfoot -20.4525 -27.787 0
rtoes -1.93173 0 0
lowerback 13.1803 0.212575 -1.14309
upperback -1.12993 0.234692 1.58707
thorax -8.64205 0.210772 2.29606
lowerneck 3.67003 -8.65598 -11.7544
upperneck -2.91271 -11.8787 9.65099
head -0.169066 -5.99743 4.74644
lclavicle -6.11842e-016 -1.76356e-014 0
lhumerus 12.0256 -45.1442 88.1418
lradius 71.0423 0 0
lwrist -1.42379 0 0
lhand -28.289 396.83 0
lfingers 7.12502 0 0
lthumb -1.66507 -653.197 0
rclavicle -6.11842e-016 -1.76356e-014 0
rhumerus 15.9738 49.3441 -51.9311
rradius 106.7 0 0
rwrist -43.1596 0 0
rhand -7.69465 -399.804 0
rfingers 7.12502 0 0
rthumb 18.2026 291.028 0
3062
root -1.46971 15.9861 -34.0991 1087.09 5.21912 1.21609
lfemur -34.3906 4.25933 -3.48299
ltibia 54.3706 0 0
lfoot -11.9364 -3.84175 0
ltoes -44.6585 0 0
rfemur -36.3711 -4.55393 24.3097
rtibia 61.5799 0 0
rfoot -20.1873 -27.6906 0
rtoes -2.57588 0 0
lowerback 13.1224 0.206055 -1.04776
upperback -1.13382 0.24048 1.56998
thorax -8.6124 0.20818 2.22202
lowerneck 3.5475 -8.52217 -11.6399
upperneck -2.79116 -11.6863 9.58929
head -0.144985 -5.89975 4.70837
lclavicle -1.35098e-015 -1.84202e-014 0
lhumerus 10.8994 -45.3913 88.6118
lradius 71.2046 0 0
lwrist -0.832722 0 0
lhand -28.3057 397.112 0
lfingers 7.12502 0 0
lthumb -1.68121 -652.915 0
rclavicle -1.35098e-015 -1.84202e-014 0
rhumerus 14.2498 49.8535 -53.084
rradius 107.164 0 0
rwrist -42.8106 0 0
rhand -7.72503 -400.413 0
rfingers 7.12502 0 0
rthumb 18.1734 290.417 0
3063
root -1.43109 15.9898 -34.0806 1087 5.59165 1.17746
lfemur -34.2354 4.06181 -3.69065
ltibia 54.1805 0 0
lfoot -12.3065 -3.64929 0
ltoes -44.8581 0 0
rfemur -36.1146 -4.36326 24.123
rtibia 61.5514 0 0
rfoot -19.937 -27.5892 0
rtoes -3.21411 0 0
lowerback 13.0619 0.201755 -0.958312
upperback -1.14016 0.248384 1.55446
thorax -8.58403 0.206979 2.15267
lowerneck 3.42529 -8.39094 -11.527
upperneck -2.67111 -11.4977 9.52402
head -0.120595 -5.80393 4.67044
lclavicle -2.05809e-015 -1.91117e-014 0
lhumerus 9.77926 -45.6082 89.0782
lradius 71.3613 0 0
lwrist -0.289653 0 0
lhand -28.3229 397.363 0
lfingers 7.12502 0 0
lthumb -1.69776 -652.664 0
rclavicle -2.05809e-015 -1.91117e-014 0
rhumerus 12.5436 50.3173 -54.239
rradius 107.603 0 0
rwrist -42.4672 0 0
rhand -7.75278 -400.917 0
rfingers 7.12502 0 0
rthumb 18.1467 289.91 0
3064
root -1.39247 15.9935 -34.062 1086.92 5.9438 1.13923
lfemur -34.068 3.87309 -3.88593
ltibia 53.9713 0 0
lfoot -12.66 -3.45931 0
ltoes -45.0387 0 0
rfemur -35.8597 -4.18903 23.9387
rtibia 61.5063 0 0
rfoot -19.7051 -27.4822 0
rtoes -3.84097 0 0
lowerback 12.9988 0.199884 -0.875926
upperback -1.14923 0.258517 1.54089
thorax -8.55723 0.207297 2.08907
lowerneck 3.30406 -8.26301 -11.4166
upperneck -2.55324 -11.3139 9.45491
head -0.0959916 -5.71049 4.63282
lclavicle -2.70365e-015 -1.96965e-014 0
lhumerus 8.66801 -45.7919 89.5394
lradius 71.5125 0 0
lwrist 0.196198 0 0
lhand -28.34 397.582 0
lfingers 7.12502 0 0
lthumb -1.71431 -652.446 0
rclavicle -2.70365e-015 -1.96965e-014 0
rhumerus 10.8609 50.7301 -55.3912
rradius 108.014 0 0
rwrist -42.1308 0 0
rhand -7.7775 -401.302 0
rfingers 7.12502 0 0
rthumb 18.1229 289.523 0
3065
root -1.35384 15.9973 -34.0435 1086.84 6.27549 1.10205
lfemur -33.8858 3.69545 -4.06548
ltibia 53.737 0 0
lfoot -12.9947 -3.27618 0
ltoes -45.2015 0 0
rfemur -35.6075 -4.03432 23.7569
rtibia 61.4425 0 0
rfoot -19.4951 -27.3689 0
rtoes -4.45101 0 0
lowerback 12.9329 0.20065 -0.801791
upperback -1.16132 0.27099 1.52964
thorax -8.53227 0.209263 2.03227
lowerneck 3.18446 -8.13907 -11.3095
upperneck -2.43821 -11.1361 9.38171
head -0.0712734 -5.61997 4.5957
lclavicle -3.25813e-015 -2.01608e-014 0
lhumerus 7.56859 -45.9395 89.9939
lradius 71.6587 0 0
lwrist 0.615614 0 0
lhand -28.3568 397.763 0
lfingers 7.12502 0 0
lthumb -1.73047 -652.265 0
rclavicle -3.25813e-015 -2.01608e-014 0
rhumerus 9.20756 51.087 -56.5357
rradius 108.394 0 0
rwrist -41.8029 0 0
rhand -7.79882 -401.553 0
rfingers 7.12502 0 0
rthumb 18.1024 289.27 0
3066
root -1.31522 16.001 -34.0249 1086.77 6.58666 1.0666
lfemur -33.6865 3.5312 -4.22596
ltibia 53.4715 0 0
lfoot -13.3083 -3.1043 0
ltoes -45.3478 0 0
rfemur -35.3593 -3.90224 23.5777
rtibia 61.3581 0 0
rfoot -19.3106 -27.2489 0
rtoes -5.0388 0 0
lowerback 12.8642 0.204261 -0.737089
upperback -1.17671 0.285918 1.52107
thorax -8.50944 0.213006 1.98334
lowerneck 3.06712 -8.01983 -11.2065
upperneck -2.32669 -10.9651 9.30413
head -0.0465376 -5.53289 4.55926
lclavicle -3.69199e-015 -2.04911e-014 0
lhumerus 6.48389 -46.0477 90.4399
lradius 71.8001 0 0
lwrist 0.95938 0 0
lhand -28.3727 397.905 0
lfingers 7.12502 0 0
lthumb -1.74583 -652.123 0
rclavicle -3.69199e-015 -2.04911e-014 0
rhumerus 7.58943 51.3825 -57.6675
rradius 108.742 0 0
rwrist -41.4847 0 0
rhand -7.81633 -401.654 0
rfingers 7.12502 0 0
rthumb 18.0855 289.167 0
3067
root -1.2766 16.0047 -34.0064 1086.71 6.87724 1.03356
lfemur -33.4673 3.38261 -4.36404
ltibia 53.1688 0 0
lfoot -13.5986 -2.94804 0
ltoes -45.4786 0 0
rfemur -35.1161 -3.79589 23.4013
rtibia 61.251 0 0
rfoot -19.1551 -27.1216 0
rtoes -5.59888 0 0
lowerback 12.7927 0.210926 -0.683006
upperback -1.19568 0.303413 1.51555
thorax -8.48902 0.218655 1.94332
lowerneck 2.9527 -7.90599 -11.1084
upperneck -2.21936 -10.8022 9.22192
head -0.0218814 -5.44978 4.52366
lclavicle -3.97569e-015 -2.06736e-014 0
lhumerus 5.41681 -46.1136 90.8759
lradius 71.9371 0 0
lwrist 1.21828 0 0
lhand -28.3873 398.004 0
lfingers 7.12502 0 0
lthumb -1.75997 -652.024 0
rclavicle -3.97569e-015 -2.06736e-014 0
rhumerus 6.01232 51.6115 -58.7815
rradius 109.053 0 0
rwrist -41.1777 0 0
rhand -7.82966 -401.591 0
rfingers 7.12502 0 0
rthumb 18.0727 289.229 0
3068
root -1.24286 16.0175 -33.9902 1086.66 7.13997 1.00046
lfemur -33.2312 3.24329 -4.48832
ltibia 52.8437 0 0
lfoot -13.87 -2.78601 0
ltoes -45.5784 0 0
rfemur -34.8724 -3.70998 23.2265
rtibia 61.124 0 0
rfoot -19.0237 -26.9838 0
rtoes -6.16298 0 0
lowerback 12.7175 0.221153 -0.638341
upperback -1.21852 0.324314 1.51235
thorax -8.47088 0.22653 1.91055
lowerneck 2.83859 -7.79476 -11.0118
upperneck -2.11471 -10.6432 9.13266
head 0.0027992 -5.36855 4.48805
lclavicle -4.2085e-015 -2.07049e-014 0
lhumerus 4.34792 -46.1375 91.3149
lradius 72.0698 0 0
lwrist 1.40121 0 0
lhand -28.4009 398.053 0
lfingers 7.12502 0 0
lthumb -1.77308 -651.975 0
rclavicle -4.2085e-015 -2.07049e-014 0
rhumerus 4.43928 51.783 -59.9242
rradius 109.347 0 0
rwrist -40.8947 0 0
rhand -7.81923 -401.339 0
rfingers 7.12502 0 0
rthumb 18.0828 289.481 0
3069
root -1.20913 16.0303 -33.9739 1086.61 7.36913 0.964522
lfemur -32.9836 3.10536 -4.60969
ltibia 52.5152 0 0
lfoot -14.1289 -2.59585 0
ltoes -45.6331 0 0
rfemur -34.6221 -3.63657 23.0522
rtibia 60.9818 0 0
rfoot -18.9081 -26.8338 0
rtoes -6.76299 0 0
lowerback 12.638 0.235098 -0.60071
upperback -1.24512 0.349157 1.51044
thorax -8.45459 0.236734 1.88241
lowerneck 2.72193 -7.68307 -10.9128
upperneck -2.01075 -10.4836 9.03473
head 0.0277044 -5.2869 4.45151
lclavicle -4.50524e-015 -2.05985e-014 0
lhumerus 3.25821 -46.1234 91.7693
lradius 72.1981 0 0
lwrist 1.52634 0 0
lhand -28.414 398.05 0
lfingers 7.12502 0 0
lthumb -1.78578 -651.978 0
rclavicle -4.50524e-015 -2.05985e-014 0
rhumerus 2.83374 51.9104 -61.1385
rradius 109.642 0 0
rwrist -40.6444 0 0
rhand -7.76986 -400.896 0
rfingers 7.12502 0 0
rthumb 18.1304 289.926 0
3070
root -1.17539 16.0431 -33.9577 1086.57 7.56695 0.925949
lfemur -32.7255 2.96891 -4.72824
ltibia 52.1838 0 0
lfoot -14.3756 -2.38045 0
ltoes -45.6466 0 0
rfemur -34.3661 -3.57477 22.8788
rtibia 60.8251 0 0
rfoot -18.8071 -26.673 0
rtoes -7.39377 0 0
lowerback 12.5546 0.252443 -0.569527
upperback -1.27516 0.3776 1.50975
thorax -8.43996 0.249066 1.85856
lowerneck 2.60298 -7.57118 -10.8119
upperneck -1.90739 -10.3237 8.92907
head 0.0528808 -5.20503 4.41416
lclavicle -4.85979e-015 -2.03664e-014 0
lhumerus 2.15118 -46.0735 92.2365
lradius 72.3217 0 0
lwrist 1.59839 0 0
lhand -28.427 397.999 0
lfingers 7.12502 0 0
lthumb -1.79834 -652.029 0
rclavicle -4.85979e-015 -2.03664e-014 0
rhumerus 1.20214 51.9952 -62.4147
rradius 109.934 0 0
rwrist -40.4217 0 0
rhand -7.68772 -400.283 0
rfingers 7.12502 0 0
rthumb 18.2096 290.543 0
